<?xml version="1.0" encoding="UTF-8" standalone="no"?>
<svg
   xmlns:dc="http://purl.org/dc/elements/1.1/"
   xmlns:cc="http://creativecommons.org/ns#"
   xmlns:rdf="http://www.w3.org/1999/02/22-rdf-syntax-ns#"
   xmlns:svg="http://www.w3.org/2000/svg"
   xmlns="http://www.w3.org/2000/svg"
   xmlns:sodipodi="http://sodipodi.sourceforge.net/DTD/sodipodi-0.dtd"
   xmlns:inkscape="http://www.inkscape.org/namespaces/inkscape"
   sodipodi:docname="rook-white.svg"
   inkscape:version="1.0 (4035a4fb49, 2020-05-01)"
   id="svg425"
   version="1.1"
   viewBox="0 0 100 100"
   height="100mm"
   width="100mm">
  <defs
     id="defs419" />
  <sodipodi:namedview
     inkscape:window-maximized="1"
     inkscape:window-y="-8"
     inkscape:window-x="-8"
     inkscape:window-height="1017"
     inkscape:window-width="1920"
     showgrid="false"
     inkscape:document-rotation="0"
     inkscape:current-layer="layer1"
     inkscape:document-units="px"
     inkscape:cy="560"
     inkscape:cx="400"
     inkscape:zoom="0.35"
     inkscape:pageshadow="2"
     inkscape:pageopacity="0.0"
     borderopacity="1.0"
     bordercolor="#666666"
     pagecolor="#ffffff"
     id="base" />
  <metadata
     id="metadata422">
    <rdf:RDF>
      <cc:Work
         rdf:about="">
        <dc:format>image/svg+xml</dc:format>
        <dc:type
           rdf:resource="http://purl.org/dc/dcmitype/StillImage" />
        <dc:title></dc:title>
      </cc:Work>
    </rdf:RDF>
  </metadata>
  <g
     id="layer1"
     inkscape:groupmode="layer"
     inkscape:label="Warstwa 1">
    <path
       id="path96"
       d="m 80.759336,91.514329 c 1.066027,0 1.927858,-0.862405 1.927858,-1.928491 v -4.531193 c 0,-1.066042 -0.861831,-1.927872 -1.927858,-1.927872 H 22.721961 c -1.065413,0 -1.927864,0.86183 -1.927864,1.927872 v 4.531193 c 0,1.066041 0.862373,1.928491 1.927864,1.928491 z"
       stroke-width="1.36245"
       stroke="#20201e"
       fill="#ffffff" />
    <rect
       id="rect98"
       height="7.1419077"
       width="55.659096"
       stroke-width="1.36245"
       stroke="#20201e"
       fill="#ffffff"
       y="75.986351"
       x="23.911695" />
    <polygon
       id="polygon100"
       points="-383.5658,80.3635 -398.2454,63.9094 -511.6526,63.9094 -526.3322,80.3635 "
       stroke-linejoin="bevel"
       stroke-width="3.4947"
       stroke="#20201e"
       fill="#ffffff"
       transform="matrix(0.38986131,0,0,0.38986131,229.10826,44.655734)" />
    <polygon
       id="polygon102"
       points="-379.092,-51.3664 -398.2454,-33.0436 -511.6526,-33.0436 -530.8688,-51.3664 "
       stroke-linejoin="round"
       stroke-width="3.4947"
       stroke="#20201e"
       fill="#ffffff"
       transform="matrix(0.38986131,0,0,0.38986131,229.10826,44.655734)" />
    <rect
       id="rect104"
       height="37.801926"
       width="44.154175"
       stroke-width="1.36245"
       stroke="#20201e"
       fill="#ffffff"
       y="31.773304"
       x="29.634764" />
    <path
       id="path106"
       d="M 79.495979,10.539474 H 69.197363 v 6.622574 l -5.779343,1.91414 -5.328927,-1.91414 V 10.539474 H 45.394418 v 6.622574 l -5.328926,1.91414 -5.779933,-1.91414 V 10.539474 H 23.986905 c -1.018123,0 -1.843381,0.862412 -1.843381,1.926655 V 24.650697 H 81.341203 V 12.466129 c -0.0012,-1.064633 -0.826702,-1.92689 -1.844708,-1.92689 z"
       stroke-linecap="square"
       stroke-width="1.36245"
       stroke="#20201e"
       fill="#ffffff" />
  </g>
</svg>
